# xmcd
# 
# Track frame offsets:
#     150
#     13333
#     52988
#     65635
# 
# Disc length: 1129
# 
# Revision: 0
# Processed by: cddbd v1.5.2PL0 Copyright (c) Steve Scherf et al.
# Submitted via: fre:ac v1.0.17
# 
DISCID=32046704
DTITLE=Electric Guest - This Head I Hold
DYEAR=2012
DGENRE=indie pop
TTITLE0=This Head I Hold
TTITLE1=Troubleman
TTITLE2=American Daydream
TTITLE3=Jenny
EXTD=
EXTT0=
EXTT1=
EXTT2=
EXTT3=
PLAYORDER=
